<svg xmlns="http://www.w3.org/2000/svg" width="168.001" height="30" viewBox="0 0 168.001 30">
  <g id="グループ_341" data-name="グループ 341" transform="translate(-40 -23)">
    <g id="グループ_282" data-name="グループ 282" transform="translate(40.002 23)">
      <path id="パス_214" data-name="パス 214" d="M37.937,92.462h7.67V84.58h5.3V105h-5.3V96.627h-7.67V105h-5.3V84.58h5.3Z" transform="translate(-32.634 -83.904)"/>
      <path id="パス_215" data-name="パス 215" d="M57.4,84.58V105h-5.3V84.58Z" transform="translate(-28.742 -83.904)"/>
      <path id="パス_216" data-name="パス 216" d="M71.311,96.627,77.725,105H71.112l-5-7.856h-.066V105h-5.3V84.58h7.934a9.336,9.336,0,0,1,3.691.673,5.408,5.408,0,0,1,2.486,2.09,6.267,6.267,0,0,1,.925,3.517,6.842,6.842,0,0,1-.515,2.659,5.178,5.178,0,0,1-3.955,3.107ZM66.048,88.64v5.092h.515a7.944,7.944,0,0,0,1.852-.185,2.882,2.882,0,0,0,1.322-.767,2.721,2.721,0,0,0,0-3.188,2.892,2.892,0,0,0-1.322-.767,7.679,7.679,0,0,0-1.852-.185Z" transform="translate(-27.012 -83.904)"/>
      <path id="パス_217" data-name="パス 217" d="M87.862,84.017a12.1,12.1,0,0,1,4.259.755,11.574,11.574,0,0,1,3.623,2.195,10.788,10.788,0,0,1,2.5,3.36,9.421,9.421,0,0,1,.912,4.192,12.205,12.205,0,0,1-.806,4.5,10.67,10.67,0,0,1-2.381,3.611,10.538,10.538,0,0,1-1.693,1.388,10.37,10.37,0,0,1-1.89.966,13.016,13.016,0,0,1-9.02,0,10.2,10.2,0,0,1-3.6-2.354,10.012,10.012,0,0,1-1.328-1.607,11.973,11.973,0,0,1-1.052-2,12.144,12.144,0,0,1-.818-4.5,10.014,10.014,0,0,1,.23-2.155,9.572,9.572,0,0,1,.694-2.036,10.808,10.808,0,0,1,2.486-3.36,11.356,11.356,0,0,1,3.665-2.195A11.693,11.693,0,0,1,87.862,84.017Zm0,5.146a5.644,5.644,0,0,0-2.869.754A5.88,5.88,0,0,0,82.876,91.9a5.063,5.063,0,0,0-.78,2.645,6.447,6.447,0,0,0,.78,3.121,5.575,5.575,0,0,0,2.09,2.195,5.727,5.727,0,0,0,2.9.781,5.642,5.642,0,0,0,2.9-.781,5.463,5.463,0,0,0,2.089-2.195,6.315,6.315,0,0,0,.78-3.121,4.938,4.938,0,0,0-.78-2.645,5.9,5.9,0,0,0-2.116-1.984A5.6,5.6,0,0,0,87.862,89.163Z" transform="translate(-23.848 -84.017)"/>
    </g>
    <g id="グループ_283" data-name="グループ 283" transform="translate(118.938 23)">
      <path id="パス_218" data-name="パス 218" d="M114.046,85.159V91.52a5.541,5.541,0,0,0-2.038-1.68,6.176,6.176,0,0,0-2.618-.568,5.234,5.234,0,0,0-2.816.754,4.947,4.947,0,0,0-1.957,2.036,5.968,5.968,0,0,0-.674,2.87,5.781,5.781,0,0,0,.7,2.869,4.827,4.827,0,0,0,1.957,1.984,5.925,5.925,0,0,0,2.869.7,5.754,5.754,0,0,0,2.513-.569,6.535,6.535,0,0,0,2.064-1.6v6.361q-1.548.475-2.686.74a9.5,9.5,0,0,1-2,.211,11.579,11.579,0,0,1-4.1-.78,10.305,10.305,0,0,1-1.25-.582,12.891,12.891,0,0,1-1.17-.727,12.638,12.638,0,0,1-1.151-.912,9.922,9.922,0,0,1-3.28-7.724,10.636,10.636,0,0,1,.793-4.033,10.333,10.333,0,0,1,2.222-3.438,11.6,11.6,0,0,1,2.274-1.786,10.8,10.8,0,0,1,5.489-1.522A12.626,12.626,0,0,1,114.046,85.159Z" transform="translate(-98.414 -83.995)"/>
      <path id="パス_219" data-name="パス 219" d="M125.488,84.017a12.119,12.119,0,0,1,4.259.754,11.6,11.6,0,0,1,3.624,2.2,10.813,10.813,0,0,1,2.5,3.359,9.43,9.43,0,0,1,.912,4.193,12.179,12.179,0,0,1-.806,4.5,10.874,10.874,0,0,1-4.074,5,10.264,10.264,0,0,1-1.891.965,12.994,12.994,0,0,1-9.019,0,10.2,10.2,0,0,1-3.6-2.353,10.065,10.065,0,0,1-1.328-1.607,11.884,11.884,0,0,1-1.051-2,12.125,12.125,0,0,1-.821-4.5,10.109,10.109,0,0,1,.232-2.156,9.554,9.554,0,0,1,.695-2.036,10.733,10.733,0,0,1,2.486-3.359,11.375,11.375,0,0,1,3.664-2.2A11.718,11.718,0,0,1,125.488,84.017Zm0,5.144a5.645,5.645,0,0,0-2.869.755A5.89,5.89,0,0,0,120.5,91.9a5.075,5.075,0,0,0-.78,2.645,6.461,6.461,0,0,0,.78,3.121,5.584,5.584,0,0,0,2.09,2.195,5.725,5.725,0,0,0,2.9.78,5.637,5.637,0,0,0,2.9-.78,5.463,5.463,0,0,0,2.089-2.195,6.3,6.3,0,0,0,.78-3.121,4.928,4.928,0,0,0-.78-2.645,5.889,5.889,0,0,0-2.116-1.984A5.605,5.605,0,0,0,125.488,89.161Z" transform="translate(-95.258 -84.017)"/>
      <path id="パス_220" data-name="パス 220" d="M136.411,105V84.579h7.525a10.687,10.687,0,0,1,4.02.781,9.927,9.927,0,0,1,3.319,2.168,10.312,10.312,0,0,1,2.837,5.178,10.323,10.323,0,0,1,.205,2.082,9.763,9.763,0,0,1-1.415,5.146,10.13,10.13,0,0,1-3.782,3.715,11.082,11.082,0,0,1-2.513,1.013,10.54,10.54,0,0,1-2.671.337Zm5.3-15.924V100.5h1.2a7.07,7.07,0,0,0,2.976-.622,4.737,4.737,0,0,0,2.116-1.891,6.183,6.183,0,0,0,.78-3.2,5.523,5.523,0,0,0-1.6-4.2,5.412,5.412,0,0,0-1.177-.827,5.817,5.817,0,0,0-1.4-.509,7.338,7.338,0,0,0-1.64-.173Z" transform="translate(-90.815 -83.905)"/>
      <path id="パス_221" data-name="パス 221" d="M166.339,89.075h-6.322v3.413h5.99v4.5h-5.99V100.5h6.322V105H154.714V84.579h11.625Z" transform="translate(-87.155 -83.905)"/>
      <path id="パス_222" data-name="パス 222" d="M170.516,96.768a3.08,3.08,0,0,1,1.6.424,3.229,3.229,0,0,1,1.574,2.737,2.972,2.972,0,0,1-.437,1.6,2.73,2.73,0,0,1-1.138,1.138,2.967,2.967,0,0,1-1.6.436,2.921,2.921,0,0,1-1.574-.436,2.783,2.783,0,0,1-1.164-1.138,3.151,3.151,0,0,1,2.738-4.762Z" transform="translate(-84.627 -81.467)"/>
    </g>
    <rect id="長方形_7" data-name="長方形 7" width="167.998" height="2.4" transform="translate(40 50.6)" fill="#0cf"/>
  </g>
</svg>
